<svg xmlns="http://www.w3.org/2000/svg" xmlns:xlink="http://www.w3.org/1999/xlink" viewBox="0 0 15.8 15.5"><defs><clipPath id="a" transform="translate(-0.6 -0.75)"><rect x="0.6" y="0.75" width="15.8" height="15.5" fill="none"/></clipPath></defs><title>i-dash-small</title><g clip-path="url(#a)"><path d="M5.67,16.25H2.6a2,2,0,0,1-2-2V11.18a2,2,0,0,1,2-2H5.67a2,2,0,0,1,2,2v3.07A2,2,0,0,1,5.67,16.25ZM2.6,10.18a1,1,0,0,0-1,1v3.07a1,1,0,0,0,1,1H5.67a1,1,0,0,0,1-1V11.18a1,1,0,0,0-1-1Z" transform="translate(-0.6 -0.75)"/><path d="M14.4,16.25H11.33a2,2,0,0,1-2-2V11.18a2,2,0,0,1,2-2H14.4a2,2,0,0,1,2,2v3.07A2,2,0,0,1,14.4,16.25Zm-3.07-6.07a1,1,0,0,0-1,1v3.07a1,1,0,0,0,1,1H14.4a1,1,0,0,0,1-1V11.18a1,1,0,0,0-1-1Z" transform="translate(-0.6 -0.75)"/><path d="M5.67,7.82H2.6a2,2,0,0,1-2-2V2.75a2,2,0,0,1,2-2H5.67a2,2,0,0,1,2,2V5.82A2,2,0,0,1,5.67,7.82ZM2.6,1.75a1,1,0,0,0-1,1V5.82a1,1,0,0,0,1,1H5.67a1,1,0,0,0,1-1V2.75a1,1,0,0,0-1-1Z" transform="translate(-0.6 -0.75)"/><path d="M14.4,7.82H11.33a2,2,0,0,1-2-2V2.75a2,2,0,0,1,2-2H14.4a2,2,0,0,1,2,2V5.82A2,2,0,0,1,14.4,7.82ZM11.33,1.75a1,1,0,0,0-1,1V5.82a1,1,0,0,0,1,1H14.4a1,1,0,0,0,1-1V2.75a1,1,0,0,0-1-1Z" transform="translate(-0.6 -0.75)"/></g></svg>