<svg xmlns="http://www.w3.org/2000/svg" viewBox="0 0 15.19 13.56"><title>i-download-small</title><path d="M7.72,11.32a.59.59,0,0,1-.34-.1L1.14,6.92A.61.61,0,0,1,.9,6.25a.59.59,0,0,1,.58-.42H4.6V1.18a.6.6,0,0,1,.6-.6h5.25a.6.6,0,0,1,.6.6V5.83H14a.6.6,0,0,1,.57.42.59.59,0,0,1-.23.67l-6.24,4.3A.59.59,0,0,1,7.72,11.32Zm-5-4.49,5,3.41,5-3.41h-2a.6.6,0,0,1-.6-.6V1.58H5.6V6.23a.6.6,0,0,1-.6.6Zm11-.73Z" transform="translate(-0.13 -0.58)" fill="#204ef0"/><path d="M14.81,14.14H.62a.51.51,0,0,1-.5-.5.5.5,0,0,1,.5-.5H14.81a.5.5,0,0,1,.5.5A.5.5,0,0,1,14.81,14.14Z" transform="translate(-0.13 -0.58)" fill="#204ef0"/></svg>