<svg width="18" height="18" viewBox="0 0 18 18" fill="none" xmlns="http://www.w3.org/2000/svg">
<mask id="path-1-inside-1" fill="white">
<path fill-rule="evenodd" clip-rule="evenodd" d="M14.297 7.70153L10.1312 3.54041L0.643743 13.0386H0.640381V17.2384H4.84019V17.169L14.297 7.70153Z"/>
</mask>
<path d="M10.1312 3.54041L10.8379 2.8329L10.1304 2.12619L9.42366 2.8337L10.1312 3.54041ZM14.297 7.70153L15.0045 8.40823L15.7112 7.70073L15.0037 6.99402L14.297 7.70153ZM0.643743 13.0386V14.0386H1.05829L1.35125 13.7453L0.643743 13.0386ZM0.640381 13.0386V12.0386H-0.359619V13.0386H0.640381ZM0.640381 17.2384H-0.359619V18.2384H0.640381V17.2384ZM4.84019 17.2384V18.2384H5.84019V17.2384H4.84019ZM4.84019 17.169L4.13268 16.4623L3.84019 16.7551V17.169H4.84019ZM9.42446 4.24791L13.5903 8.40903L15.0037 6.99402L10.8379 2.8329L9.42446 4.24791ZM1.35125 13.7453L10.8387 4.24711L9.42366 2.8337L-0.0637632 12.3319L1.35125 13.7453ZM0.640381 14.0386H0.643743V12.0386H0.640381V14.0386ZM1.64038 17.2384V13.0386H-0.359619V17.2384H1.64038ZM4.84019 16.2384H0.640381V18.2384H4.84019V16.2384ZM3.84019 17.169V17.2384H5.84019V17.169H3.84019ZM13.5895 6.99482L4.13268 16.4623L5.54769 17.8757L15.0045 8.40823L13.5895 6.99482Z" fill="#204EF0" mask="url(#path-1-inside-1)"/>
<path d="M14.7339 1.76717L16.0697 3.10146C16.6558 3.68692 16.6564 4.63666 16.0709 5.22278L14.9213 6.37365L11.463 2.91923L12.6126 1.76837C13.198 1.18225 14.1478 1.18171 14.7339 1.76717Z" stroke="#204EF0"/>
</svg>
