<svg xmlns="http://www.w3.org/2000/svg" viewBox="0 0 12.71 13.02"><title>i-expand-small</title><path d="M12.08,13.55H3.88a.55.55,0,0,1,0-1.1h8V1.62H1.32V11L7.73,4.53H3.88A.55.55,0,0,1,3.33,4a.54.54,0,0,1,.55-.55h5.2a.43.43,0,0,1,.19,0h0a.87.87,0,0,1,.18.11h0a.87.87,0,0,1,.11.18h0a.65.65,0,0,1,0,.19h0V9.53a.55.55,0,0,1-.55.55.55.55,0,0,1-.55-.55V5.31L1.67,12.15a.85.85,0,0,1-.93.18.83.83,0,0,1-.52-.78V1.38A.85.85,0,0,1,1.07.53h11a.85.85,0,0,1,.85.85V12.7A.85.85,0,0,1,12.08,13.55Z" transform="translate(-0.22 -0.53)" fill="#204ef0"/></svg>