<svg width="11" height="11" viewBox="0 0 11 11" fill="none" xmlns="http://www.w3.org/2000/svg">
<circle cx="5.4375" cy="5.47778" r="4.6875" stroke="#345FF9" stroke-width="0.5"/>
<path d="M6.27734 7.802L6.21875 8.052C5.97917 8.14836 5.78776 8.21476 5.64453 8.25122C5.5013 8.29028 5.37891 8.30981 5.27734 8.30981C5.06901 8.30981 4.91276 8.25643 4.80859 8.14966C4.70443 8.04028 4.65234 7.90617 4.65234 7.74731C4.65234 7.68742 4.65755 7.62492 4.66797 7.55981C4.67839 7.49471 4.69531 7.41268 4.71875 7.31372L5.13281 5.65356C5.15365 5.56242 5.17318 5.46476 5.19141 5.3606C5.21224 5.25643 5.22266 5.16789 5.22266 5.09497C5.22266 4.94914 5.19792 4.85278 5.14844 4.80591C5.10156 4.75643 5.00391 4.73169 4.85547 4.73169C4.79818 4.73169 4.72135 4.7408 4.625 4.75903C4.53125 4.77726 4.45964 4.79289 4.41016 4.80591L4.46875 4.55591C4.67188 4.46476 4.85417 4.39705 5.01562 4.35278C5.17708 4.30851 5.30469 4.28638 5.39844 4.28638C5.61198 4.28638 5.76693 4.33716 5.86328 4.43872C5.95964 4.54028 6.00781 4.677 6.00781 4.84888C6.00781 4.89575 6.0026 4.95955 5.99219 5.04028C5.98177 5.12101 5.96615 5.20174 5.94531 5.28247L5.52734 6.94263C5.5013 7.04419 5.47786 7.14445 5.45703 7.24341C5.4388 7.33976 5.42969 7.41919 5.42969 7.48169C5.42969 7.63013 5.46224 7.73169 5.52734 7.78638C5.59505 7.84106 5.70312 7.86841 5.85156 7.86841C5.90104 7.86841 5.97135 7.8619 6.0625 7.84888C6.15625 7.83586 6.22786 7.82023 6.27734 7.802ZM6.55469 2.80981C6.55469 2.95825 6.50651 3.08846 6.41016 3.20044C6.3138 3.30981 6.19401 3.3645 6.05078 3.3645C5.91797 3.3645 5.80339 3.31242 5.70703 3.20825C5.61068 3.10148 5.5625 2.98039 5.5625 2.84497C5.5625 2.70174 5.61068 2.57674 5.70703 2.46997C5.80339 2.3632 5.91797 2.30981 6.05078 2.30981C6.19922 2.30981 6.32031 2.3606 6.41406 2.46216C6.50781 2.56112 6.55469 2.677 6.55469 2.80981Z" fill="#345FF9"/>
</svg>
