<svg xmlns="http://www.w3.org/2000/svg" viewBox="0 0 9.86 9.86"><title>i-info-small</title><path d="M9,13.93H9A4.93,4.93,0,0,1,9,4.07H9a4.93,4.93,0,0,1,0,9.86ZM9,4.57A4.42,4.42,0,0,0,4.56,9,4.44,4.44,0,0,0,9,13.43H9A4.43,4.43,0,0,0,9,4.57H9Z" transform="translate(-4.06 -4.07)" fill="#345ff9"/><path d="M9.84,11.33l-.06.25-.58.2a2.25,2.25,0,0,1-.36.06.67.67,0,0,1-.47-.16.57.57,0,0,1-.16-.4v-.19a.5.5,0,0,1,0-.25l.41-1.66.06-.29a1.22,1.22,0,0,0,0-.27c0-.14,0-.24-.07-.28a.34.34,0,0,0-.29-.08H8.13l-.21.05.14-.22a2.83,2.83,0,0,1,.55-.21A1.21,1.21,0,0,1,9,7.82.56.56,0,0,1,9.45,8a.55.55,0,0,1,.15.41V8.8l-.54,1.66a.46.46,0,0,1-.07.3A1,1,0,0,0,9,11a.41.41,0,0,0,.1.32.6.6,0,0,0,.32.07h.21A.79.79,0,0,0,9.84,11.33Zm.27-5a.52.52,0,0,1-.14.39.48.48,0,0,1-.36.16.46.46,0,0,1-.34-.16.52.52,0,0,1,0-.73.39.39,0,0,1,.34-.16A.45.45,0,0,1,10,6a.5.5,0,0,1,.14.31Z" transform="translate(-4.06 -4.07)" fill="#345ff9"/></svg>