<svg xmlns="http://www.w3.org/2000/svg" viewBox="0 0 13.42 13.42"><title>i-link-small</title><path d="M8,4.58l2.27-2.27a.11.11,0,0,1,.15,0l2.44,2.44a.12.12,0,0,1,0,.14L8.3,9.42a.1.1,0,0,1-.14,0L6.28,7.54l-.85.84,1.88,1.89a1.3,1.3,0,0,0,1.84,0l4.53-4.53a1.3,1.3,0,0,0,0-1.84L11.24,1.46a1.29,1.29,0,0,0-1.83,0l-3,3h0a1.06,1.06,0,0,1,1.48,0ZM4.73,7.66a.43.43,0,0,1,0-.07" transform="translate(-0.64 -1.08)" fill="#204ef0" fill-rule="evenodd"/><path d="M6.73,11,4.45,13.27a.1.1,0,0,1-.14,0L1.87,10.83a.1.1,0,0,1,0-.14L6.4,6.16a.1.1,0,0,1,.14,0L8.43,8l.85-.84L7.39,5.31a1.3,1.3,0,0,0-1.84,0L1,9.84a1.32,1.32,0,0,0,0,1.84l2.44,2.44a1.3,1.3,0,0,0,1.84,0l3-3h0a1.05,1.05,0,0,1-1.47,0Z" transform="translate(-0.64 -1.08)" fill="#204ef0" fill-rule="evenodd"/></svg>