<svg xmlns="http://www.w3.org/2000/svg" viewBox="0 0 10.69 10.01"><title>i-list-small</title><path d="M10.34,1.73H4.84a.51.51,0,0,1-.5-.5.5.5,0,0,1,.5-.5h5.5a.5.5,0,0,1,.5.5A.5.5,0,0,1,10.34,1.73Z" transform="translate(-0.15 -0.23)"/><path d="M10.34,5.73H4.84a.5.5,0,0,1-.5-.5.51.51,0,0,1,.5-.5h5.5a.5.5,0,0,1,.5.5A.5.5,0,0,1,10.34,5.73Z" transform="translate(-0.15 -0.23)"/><path d="M10.34,9.29H4.84a.5.5,0,0,1-.5-.5.51.51,0,0,1,.5-.5h5.5a.5.5,0,0,1,.5.5A.5.5,0,0,1,10.34,9.29Z" transform="translate(-0.15 -0.23)"/><circle cx="1.44" cy="1.44" r="0.94" fill="#fff"/><path d="M1.6,3.11A1.44,1.44,0,1,1,3,1.67,1.44,1.44,0,0,1,1.6,3.11Zm0-1.88A.44.44,0,1,0,2,1.67.45.45,0,0,0,1.6,1.23Z" transform="translate(-0.15 -0.23)"/><circle cx="1.44" cy="5.01" r="0.94" fill="#fff"/><path d="M1.6,6.68A1.45,1.45,0,1,1,3,5.23,1.45,1.45,0,0,1,1.6,6.68Zm0-1.89A.45.45,0,1,0,2,5.23.45.45,0,0,0,1.6,4.79Z" transform="translate(-0.15 -0.23)"/><circle cx="1.44" cy="8.57" r="0.94" fill="#fff"/><path d="M1.6,10.24A1.45,1.45,0,1,1,3,8.79,1.45,1.45,0,0,1,1.6,10.24Zm0-1.89A.45.45,0,1,0,2,8.79.45.45,0,0,0,1.6,8.35Z" transform="translate(-0.15 -0.23)"/></svg>