<svg xmlns="http://www.w3.org/2000/svg" viewBox="0 0 12.13 13.5"><title>i-pin-small</title><path d="M13.21,3.36C11.41,2,9.36,1.83,8.39,2.84l0,0L8.22,3h0L8,3.36,7.18,4.92A6.29,6.29,0,0,0,3.4,7.44h0a1.15,1.15,0,0,0-.14.92A3.68,3.68,0,0,0,3.8,9.6,10.45,10.45,0,0,0,6.06,12L4,14.74a.6.6,0,0,0,.13.84.56.56,0,0,0,.35.11A.6.6,0,0,0,5,15.45l2-2.73a10.8,10.8,0,0,0,3,1.48,4.34,4.34,0,0,0,1.1.17l.24,0a1.13,1.13,0,0,0,.84-.4h0a6.3,6.3,0,0,0,1.28-4.37L14.71,8.4l.4-.59h0C15.79,6.59,15,4.69,13.21,3.36ZM10.34,13a9.44,9.44,0,0,1-2.6-1.28l.31-.43a.6.6,0,0,0-.12-.84.6.6,0,0,0-.84.13L6.77,11A9.07,9.07,0,0,1,4.82,9a3,3,0,0,1-.36-.73,2.18,2.18,0,0,1,.8.12A10,10,0,0,1,8.34,10a9.85,9.85,0,0,1,2.45,2.48,2.93,2.93,0,0,1,.35.73A2.35,2.35,0,0,1,10.34,13Zm1.81-3.87.09.35A4.55,4.55,0,0,1,12,12.09a3,3,0,0,0-.16-.3A11,11,0,0,0,9.06,9,11.31,11.31,0,0,0,5.58,7.19L5.2,7.12a4.68,4.68,0,0,1,2.4-1H8L9,4l.24-.32c.41-.56,1.91-.42,3.3.61s2,2.42,1.55,3h0l-.19.26Z" transform="translate(-3.23 -2.2)"/></svg>