<svg xmlns="http://www.w3.org/2000/svg" viewBox="0 0 10 15.65"><title>i-trash-small</title><path d="M4,14.45A.5.5,0,0,1,3.53,14L3.06,8.24a.5.5,0,0,1,.46-.54.51.51,0,0,1,.54.46l.46,5.75a.49.49,0,0,1-.45.54Z" transform="translate(-0.84 -0.54)" fill="#204ef0"/><path d="M7.65,14.45h0a.51.51,0,0,1-.46-.54l.47-5.75a.5.5,0,0,1,1,.08L8.15,14A.5.5,0,0,1,7.65,14.45Z" transform="translate(-0.84 -0.54)" fill="#204ef0"/><path d="M9.84,16.19h-8L.84,6h10Zm-7.1-1H8.93L9.73,7H1.94Z" transform="translate(-0.84 -0.54)" fill="#204ef0"/><path d="M9.84,2.5H8.24v-2H3.62v2H1.84l-1,2.8h10Zm-5.22-1H7.24v1H4.62ZM2.26,4.3l.28-.8H9.13l.29.8Z" transform="translate(-0.84 -0.54)" fill="#204ef0"/><path d="M5.84,14.45a.5.5,0,0,1-.5-.5V8.2a.5.5,0,0,1,.5-.5.5.5,0,0,1,.5.5V14A.5.5,0,0,1,5.84,14.45Z" transform="translate(-0.84 -0.54)" fill="#204ef0"/></svg>