<svg width="33" height="30" viewBox="0 0 33 30" fill="none" xmlns="http://www.w3.org/2000/svg">
<path d="M22.2093 16.789L22.2093 27.4726C22.2093 27.5279 22.1645 27.5726 22.1093 27.5726L11.0274 27.5726C10.9722 27.5726 10.9274 27.5279 10.9274 27.4726L10.9274 16.789C10.9274 16.7337 10.8827 16.689 10.8274 16.689L3.50646 16.689C3.40831 16.689 3.3689 16.5623 3.44974 16.5066L16.7329 7.35691C16.767 7.33338 16.8122 7.33338 16.8463 7.35691L30.1294 16.5066C30.2103 16.5623 30.1709 16.689 30.0727 16.689L22.3093 16.689C22.2541 16.689 22.2093 16.7337 22.2093 16.789Z" fill="black" stroke="black" stroke-width="3" stroke-linecap="round"/>
<path d="M31.4956 1.52954L2.0838 1.52954" stroke="black" stroke-width="3" stroke-linecap="round"/>
</svg>
